# xmcd
#
# Track frame offsets:
#	150
#	19528
#	33216
#	51634
#	66282
#	81563
#	91723
#	106073
#	115135
#	128621
#	139109
#	155439
#
# Disc length: 2180 seconds
#
# Revision: 1
# Processed by: cddbd v1.5PL3 Copyright (c) Steve Scherf et al.
# Submitted via: audiograbber 1.82.01
#
DISCID=9608820c
DTITLE=Riley Siebert - If You Had To Take His Place
DYEAR=2003
DGENRE=Country
TTITLE0=If You Had To Take His Place
TTITLE1=Tennessee Flat Top Box
TTITLE2=Will She Remember Him
TTITLE3=Proud Mary
TTITLE4=Where Do We Start
TTITLE5=Folsom Prison Blues
TTITLE6=Grandpa
TTITLE7=Bad Moon Rising
TTITLE8=Back In The Good Old Days
TTITLE9=Lodi
TTITLE10=The Bull Rider
TTITLE11=Rockin Robin (Bonus Track)
EXTD=
EXTT0=
EXTT1=
EXTT2=
EXTT3=
EXTT4=
EXTT5=
EXTT6=
EXTT7=
EXTT8=
EXTT9=
EXTT10=
EXTT11=
PLAYORDER=
